<?xml version="1.0" standalone="no"?><!DOCTYPE svg PUBLIC "-//W3C//DTD SVG 1.1//EN" "http://www.w3.org/Graphics/SVG/1.1/DTD/svg11.dtd"><svg t="1574676623580" class="icon" viewBox="0 0 1024 1024" version="1.1" xmlns="http://www.w3.org/2000/svg" p-id="11260" xmlns:xlink="http://www.w3.org/1999/xlink" width="32" height="32"><defs><style type="text/css"></style></defs><path d="M399.8 832h-127.6c-9 0-16.2-7.2-16.2-16V208c0-8.8 7.2-16 16.2-16h127.6c9 0 16.2 7.2 16.2 16v608c0 8.8-7.2 16-16.2 16z m352 0h-127.6c-9 0-16.2-7.2-16.2-16V208c0-8.8 7.2-16 16.2-16h127.6c9 0 16.2 7.2 16.2 16v608c0 8.8-7.2 16-16.2 16z" p-id="11261" fill="#ffffff"></path></svg>