<?xml version="1.0" standalone="no"?><!DOCTYPE svg PUBLIC "-//W3C//DTD SVG 1.1//EN" "http://www.w3.org/Graphics/SVG/1.1/DTD/svg11.dtd"><svg t="1574676804672" class="icon" viewBox="0 0 1024 1024" version="1.1" xmlns="http://www.w3.org/2000/svg" p-id="12088" xmlns:xlink="http://www.w3.org/1999/xlink" width="32" height="32"><defs><style type="text/css"></style></defs><path d="M653.8 291.2c-4.4-2.2-9.2-3.2-13.8-3.2-7.2 0-14.2 2.4-20 7L489.6 400H384c-17.6 0-32 14.4-32 32v160c0 17.6 14.4 32 32 32h105.6l130.4 105c5.8 4.6 13 7 20 7 4.6 0 9.4-1 13.8-3.2 11.2-5.4 18.2-16.6 18.2-28.8V320c0-12.4-7-23.6-18.2-28.8z" p-id="12089" fill="#ffffff"></path></svg>