<?xml version="1.0" standalone="no"?><!DOCTYPE svg PUBLIC "-//W3C//DTD SVG 1.1//EN" "http://www.w3.org/Graphics/SVG/1.1/DTD/svg11.dtd"><svg t="1574814059026" class="icon" viewBox="0 0 1024 1024" version="1.1" xmlns="http://www.w3.org/2000/svg" p-id="6254" xmlns:xlink="http://www.w3.org/1999/xlink" width="32" height="32"><defs><style type="text/css"></style></defs><path d="M811.8 576.2c-5.2-5.2-12.4-8.2-19.8-8.2s-14.4 2.8-19.8 8.2c-5.4 5.2-8.2 12.4-8.2 19.8s3 14.4 8.2 19.8l32.6 32.4h-151l-248-310-0.2-0.2c-5.2-6.2-13.4-10-21.6-10H156c-15.4 0-28 12.6-28 28s12.6 28 28 28h214.8l105 132-105 132H156c-15.4 0-28 12.6-28 28s12.6 28 28 28h228c8.2 0 16-3.6 21.4-10l0.2-0.2 106.4-133.6 106.4 133.6 0.2 0.2c5.4 6.4 13.2 10 21.4 10h168.8l-32.6 32.4c-5.4 5.2-8.2 12.2-8.2 19.8 0 7.4 3 14.4 8.2 19.8 5.2 5.2 12.4 8.2 19.8 8.2s14.4-2.8 19.8-8.2l67.2-66.8c8.4-8.2 13-19.2 13-31s-4.6-22.8-13-31l-71.2-71z" p-id="6255" fill="#ffffff"></path><path d="M558.8 470.8c2.2 2.8 5.6 4.2 9.2 4.2h0.2c3.6 0 7-1.6 9.2-4.4l75.8-94.6h151.6l-32.6 32.4c-5.4 5.2-8.2 12.2-8.2 19.8 0 7.4 3 14.4 8.2 19.8 5.2 5.2 12.4 8.2 19.8 8.2s14.4-2.8 19.8-8.2l71.2-70.8c8.4-8.2 13-19.4 13-31 0-11.8-4.6-22.8-13-31l-67.2-66.8c-5.2-5.2-12.4-8.2-19.8-8.2s-14.4 2.8-19.8 8.2c-5.4 5.2-8.2 12.4-8.2 19.8s3 14.4 8.2 19.8l32.6 32.4H640c-8.2 0-16 3.6-21.4 10l-0.2 0.2-80.6 100.4c-3.6 4.4-3.6 10.8 0.2 15.2l20.8 24.6z" p-id="6256" fill="#ffffff"></path></svg>